<svg xmlns="http://www.w3.org/2000/svg" viewBox="0 0 512 512">
  <circle cx="256" cy="256" r="256" fill="#FFE4EC"/>
  <rect x="246" y="280" width="20" height="100" rx="5" fill="#5D4037"/>
  <rect x="206" y="370" width="100" height="16" rx="8" fill="#5D4037"/>
  <line x1="120" y1="200" x2="392" y2="200" stroke="#5D4037" stroke-width="8" stroke-linecap="round"/>
  <circle cx="256" cy="200" r="14" fill="#5D4037"/>
  <circle cx="256" cy="200" r="8" fill="#FFE4EC"/>
  <line x1="120" y1="200" x2="120" y2="250" stroke="#8D6E63" stroke-width="3"/>
  <path d="M 70 250 Q 70 280 120 280 Q 170 280 170 250 Z" fill="#FF6B9D" opacity="0.9"/>
  <text x="120" y="272" text-anchor="middle" fill="white" font-size="28" font-weight="bold" font-family="Arial">K</text>
  <line x1="392" y1="200" x2="392" y2="250" stroke="#8D6E63" stroke-width="3"/>
  <path d="M 342 250 Q 342 280 392 280 Q 442 280 442 250 Z" fill="#4ECDC4" opacity="0.9"/>
  <text x="392" y="272" text-anchor="middle" fill="white" font-size="28" font-weight="bold" font-family="Arial">W</text>
  <path d="M 256 140 C 246 120, 220 120, 220 140 C 220 160, 256 180, 256 180 C 256 180, 292 160, 292 140 C 292 120, 266 120, 256 140 Z" fill="#FF6B9D" opacity="0.7"/>
  <circle cx="160" cy="150" r="4" fill="#FFD54F"/>
  <circle cx="350" cy="160" r="3" fill="#FFD54F"/>
  <circle cx="180" cy="340" r="3" fill="#FFD54F"/>
  <circle cx="340" cy="330" r="4" fill="#FFD54F"/>
</svg>
